<svg width="30" height="30" viewBox="0 0 30 30" fill="none" xmlns="http://www.w3.org/2000/svg">
<path d="M25.3212 22.3095C24.7145 22.2822 24.1079 22.2822 23.508 22.3095C22.9355 22.3367 22.5878 22.7321 22.6083 23.2569C22.6287 23.7613 22.9968 24.109 23.5557 24.1294C23.8352 24.143 24.1215 24.1294 24.401 24.1294C24.6941 24.1294 24.9872 24.1362 25.2735 24.1294C25.8188 24.109 26.2005 23.7409 26.2209 23.2433C26.2414 22.7525 25.8665 22.3367 25.3212 22.3095Z" fill="#33a137"/>
<path d="M5.40509 7.87245C6.03901 7.89289 6.67293 7.89289 7.30685 7.87245C7.81126 7.852 8.17252 7.4362 8.15889 6.93861C8.15207 6.46146 7.78399 6.08657 7.2864 6.06612C6.98648 6.05248 6.68656 6.06612 6.37983 6.06612C6.06628 6.06612 5.75272 6.0593 5.44599 6.06612C4.93476 6.07975 4.55305 6.45465 4.53942 6.94542C4.52578 7.41575 4.9075 7.85881 5.40509 7.87245Z" fill="#33a137"/>
<path d="M15.99 6.82269C16.2014 6.96584 16.4399 6.97265 16.6785 6.97265C17.8168 6.97265 18.9483 6.97265 20.0867 6.97265C21.2114 6.97265 22.336 6.97265 23.4607 6.97265C23.5971 6.97265 23.7334 6.96584 23.8629 6.94539C24.5241 6.82951 24.824 6.05245 24.4218 5.52077C24.1969 5.22085 23.8765 5.14587 23.5153 5.14587C21.2318 5.14587 18.9483 5.14587 16.6717 5.14587C16.5285 5.14587 16.3786 5.15951 16.2422 5.19359C15.881 5.2822 15.6151 5.58894 15.5811 5.97065C15.5402 6.33192 15.6833 6.6182 15.99 6.82269Z" fill="#33a137"/>
<path d="M23.6107 8.76535C21.2591 8.76535 18.9007 8.76535 16.549 8.76535C15.9833 8.76535 15.5606 9.1607 15.5675 9.67874C15.5675 10.2036 15.9833 10.5785 16.5558 10.5785C17.7214 10.5785 18.887 10.5785 20.0594 10.5785C21.2455 10.5785 22.4383 10.5785 23.6244 10.5785C24.2038 10.5785 24.6127 10.2104 24.6196 9.68555C24.6196 9.1607 24.1969 8.76535 23.6107 8.76535Z" fill="#33a137"/>
<path d="M29.9909 3.86441C29.9704 1.94902 28.3686 0.381267 26.4532 0.381267C22.2066 0.374451 17.96 0.374451 13.7203 0.374451C13.0932 0.374451 12.507 0.538043 11.9685 0.85841C10.762 1.58776 10.1826 2.68519 10.1758 4.08254C10.169 6.03201 10.1622 7.98148 10.1826 9.93095C10.1826 10.2445 10.094 10.299 9.80089 10.299C7.97412 10.2854 6.14734 10.3058 4.32738 10.2854C2.18705 10.265 0.619292 11.9009 0.598843 13.8503C0.578394 16.5223 0.585211 19.1875 0.598843 21.8595C0.60566 22.7116 0.891946 23.475 1.44407 24.1226C2.17342 24.9678 3.09362 25.3904 4.2115 25.404C4.72273 25.4108 4.72273 25.404 4.72273 25.9289C4.72273 26.556 4.71591 27.1831 4.72273 27.8034C4.72954 28.3487 4.91358 28.8258 5.35664 29.1666C6.05873 29.7188 6.93803 29.6642 7.62648 29.0167C8.80571 27.9124 9.98493 26.8082 11.1573 25.6903C11.3755 25.479 11.5936 25.3904 11.8935 25.3904C13.5294 25.404 15.1653 25.3972 16.8081 25.3972C17.0944 25.3972 17.367 25.3631 17.6397 25.295C19.296 24.8724 20.4003 23.4818 20.4071 21.7709C20.4139 20.1963 20.4071 18.6218 20.4139 17.0472C20.4139 16.9518 20.3798 16.8427 20.4548 16.7268C20.5298 16.795 20.598 16.8563 20.6593 16.9177C21.4227 17.6334 22.1862 18.3423 22.9428 19.058C23.4881 19.5761 24.1084 19.7465 24.8036 19.467C25.533 19.1739 25.8465 18.5809 25.8534 17.8106C25.8602 17.1972 25.8534 16.5769 25.8534 15.9634C25.8534 15.4726 25.8534 15.4726 26.3373 15.4658C28.3618 15.4317 29.9568 13.939 29.9772 11.9827C30.0181 9.2834 30.0113 6.5705 29.9909 3.86441ZM18.5871 21.6482C18.5871 22.8684 17.8578 23.5909 16.6445 23.5909C14.8859 23.5909 13.1204 23.6045 11.3618 23.5841C10.9324 23.5772 10.612 23.7136 10.3053 24.0067C9.15334 25.1109 7.98775 26.1947 6.82216 27.2853C6.75399 27.3535 6.69946 27.4557 6.55632 27.4694C6.55632 26.5355 6.55632 25.6153 6.55632 24.6883C6.55632 24.5247 6.56314 24.3543 6.50861 24.1907C6.38591 23.8431 6.05873 23.5909 5.68383 23.5841C5.2135 23.5772 4.74317 23.5841 4.27966 23.5773C3.22313 23.5704 2.43925 22.8479 2.43244 21.7914C2.41199 19.1535 2.41199 16.5155 2.43244 13.8776C2.43925 12.8279 3.19587 12.119 4.2524 12.1122C6.14734 12.1054 8.0491 12.1122 9.94404 12.1054C10.1553 12.1054 10.2167 12.1667 10.244 12.378C10.4007 13.973 11.8867 15.3908 13.4953 15.4317C15.0904 15.4726 16.6854 15.459 18.2804 15.4522C18.5394 15.4522 18.6076 15.5203 18.6076 15.7794C18.5871 17.7493 18.594 19.6988 18.5871 21.6482ZM28.1709 11.8872C28.1641 12.937 27.4007 13.6459 26.3441 13.6527C25.9352 13.6527 25.533 13.6527 25.124 13.6527C24.381 13.6527 24.0402 14.0003 24.0402 14.7433C24.0402 15.609 24.0402 16.4746 24.0402 17.3403C24.0402 17.4017 24.0402 17.4562 24.0402 17.5243C23.8971 17.5039 23.8494 17.4085 23.7744 17.3403C22.5951 16.2361 21.4091 15.1386 20.2367 14.0276C19.964 13.7685 19.6573 13.6527 19.2824 13.6527C17.4897 13.6595 15.697 13.6254 13.9043 13.6663C12.8478 13.6868 11.9889 12.8552 12.0094 11.7373C12.0503 9.19479 12.0094 6.65229 12.0094 4.10298C12.0094 3.09417 12.5479 2.40572 13.4817 2.21486C13.6044 2.1876 13.7271 2.1876 13.8566 2.1876C18.0146 2.1876 22.1794 2.1876 26.3373 2.1876C27.3939 2.1876 28.1709 2.91013 28.1777 3.97347C28.1845 6.6114 28.1914 9.24932 28.1709 11.8872Z" fill="#33a137"/>
<path d="M7.26501 16.8972C6.75379 16.8904 6.35163 17.279 6.34481 17.7902C6.33799 18.2878 6.75379 18.7104 7.24457 18.7104C7.74897 18.7104 8.16477 18.3082 8.16477 17.8106C8.17159 17.2994 7.77624 16.9041 7.26501 16.8972Z" fill="#33a137"/>
<path d="M10.8638 16.8972C10.3389 16.8972 9.97082 17.279 9.97763 17.8106C9.98445 18.3219 10.3798 18.7172 10.8978 18.7036C11.3682 18.6968 11.7908 18.2605 11.7908 17.797C11.784 17.2994 11.375 16.8972 10.8638 16.8972Z" fill="#33a137"/>
<path d="M14.4633 16.8972C13.9589 16.9041 13.5431 17.3267 13.5499 17.8106C13.5635 18.2741 13.9929 18.7036 14.4633 18.7036C14.9745 18.7036 15.3698 18.315 15.3698 17.797C15.3698 17.2721 14.9881 16.8904 14.4633 16.8972Z" fill="#33a137"/>
</svg>
