<svg width="20" height="20" viewBox="0 0 20 20" fill="none" xmlns="http://www.w3.org/2000/svg">
<path d="M15.9428 14.7038L16.3195 17.7565C16.4162 18.5584 15.5564 19.1187 14.8705 18.7033L11.5279 16.7132C11.2961 16.578 11.2381 16.2881 11.3637 16.0563C11.8467 15.1675 12.1075 14.1628 12.1075 13.1581C12.1075 9.62235 9.07412 6.74351 5.34513 6.74351C4.58194 6.74351 3.83808 6.85943 3.14252 7.09129C2.78508 7.20721 2.4373 6.87876 2.52424 6.51165C3.40335 2.99521 6.78455 0.377197 10.8227 0.377197C15.537 0.377197 19.353 3.94194 19.353 8.3375C19.353 10.9459 18.0101 13.2547 15.9428 14.7038Z" fill="#04a551"/>
<path d="M10.6579 13.1582C10.6579 14.3078 10.2328 15.3704 9.51792 16.2109C8.56153 17.3702 7.04482 18.114 5.34456 18.114L2.82315 19.6114C2.39809 19.8722 1.8571 19.5148 1.91506 19.0221L2.15657 17.119C0.862058 16.2206 0.03125 14.7811 0.03125 13.1582C0.03125 11.4579 0.939343 9.96051 2.33046 9.07174C3.19025 8.51143 4.22393 8.19263 5.34456 8.19263C8.28137 8.19263 10.6579 10.4146 10.6579 13.1582Z" fill="#04a551"/>
</svg>
