<svg width="16" height="21" viewBox="0 0 16 21" fill="none" xmlns="http://www.w3.org/2000/svg">
<path d="M15.1806 12.6437L14.1963 11.0097C13.9896 10.6455 13.8025 9.95646 13.8025 9.55288V7.06252C13.8025 4.74934 12.4442 2.75114 10.4853 1.81602C9.97349 0.910435 9.02853 0.349365 7.94577 0.349365C6.87284 0.349365 5.90823 0.930122 5.39638 1.84555C3.47693 2.80036 2.14808 4.77887 2.14808 7.06252V9.55288C2.14808 9.95646 1.96106 10.6455 1.75435 10.9999L0.760171 12.6437C0.366437 13.3032 0.277848 14.0316 0.523931 14.7009C0.760171 15.3605 1.32124 15.8723 2.04965 16.1184C3.95925 16.768 5.9673 17.083 7.9753 17.083C9.98334 17.083 11.9914 16.768 13.901 16.1282C14.59 15.9018 15.1216 15.3801 15.3775 14.7009C15.6334 14.0218 15.5645 13.2737 15.1806 12.6437Z" fill="#04a551"/>
<path d="M10.7412 18.0772C10.3278 19.2191 9.23515 20.036 7.95552 20.036C7.17789 20.036 6.41011 19.7211 5.86872 19.16C5.55373 18.8647 5.31749 18.471 5.17969 18.0674C5.30765 18.0871 5.43561 18.0969 5.57342 18.1166C5.79982 18.1461 6.03607 18.1757 6.27231 18.1953C6.83338 18.2446 7.40429 18.2741 7.9752 18.2741C8.53627 18.2741 9.09734 18.2446 9.64857 18.1953C9.85528 18.1757 10.062 18.1658 10.2589 18.1363C10.4163 18.1166 10.5738 18.0969 10.7412 18.0772Z" fill="#04a551"/>
</svg>
