<svg width="21" height="21" viewBox="0 0 21 21" fill="none" xmlns="http://www.w3.org/2000/svg">
<path d="M20.5605 17.9265C20.9121 18.3171 20.9121 18.9031 20.5215 19.2546L19.4277 20.3484C19.0762 20.739 18.4902 20.739 18.0996 20.3484L14.2324 16.4812C14.0371 16.2859 13.959 16.0515 13.959 15.8171V15.1531C12.5527 16.2468 10.834 16.8718 8.95898 16.8718C4.4668 16.8718 0.833984 13.239 0.833984 8.74683C0.833984 4.2937 4.4668 0.621826 8.95898 0.621826C13.4121 0.621826 17.084 4.2937 17.084 8.74683C17.084 10.6609 16.4199 12.3796 15.3652 13.7468H15.9902C16.2246 13.7468 16.459 13.864 16.6543 14.0203L20.5605 17.9265ZM8.95898 13.7468C11.6934 13.7468 13.959 11.5203 13.959 8.74683C13.959 6.01245 11.6934 3.74683 8.95898 3.74683C6.18555 3.74683 3.95898 6.01245 3.95898 8.74683C3.95898 11.5203 6.18555 13.7468 8.95898 13.7468Z" fill="#33a137"/>
</svg>
