<svg width="25" height="18" viewBox="0 0 25 18" fill="none" xmlns="http://www.w3.org/2000/svg">
<path d="M12.8314 2.09953C13.092 1.83896 13.092 1.40903 12.8314 1.16149C12.5839 0.913945 12.1279 0.913945 11.8803 1.16149C11.6328 1.42205 11.6328 1.83896 11.8934 2.09953C12.1539 2.37312 12.5709 2.36009 12.8314 2.09953Z" fill="#33a137"/>
<path d="M23.319 0.978842C20.583 0.978842 17.8601 0.978842 15.1241 0.978842C15.0199 0.978842 14.9026 0.978844 14.7984 0.991873C14.4987 1.04399 14.2512 1.33061 14.2512 1.6433C14.2512 1.96901 14.4727 2.2426 14.7854 2.29472C14.9156 2.32078 15.0459 2.30775 15.1762 2.30775C17.2477 2.30775 19.3193 2.30775 21.4038 2.30775C21.495 2.30775 21.5992 2.26866 21.6904 2.34683C21.6514 2.38592 21.6123 2.43804 21.5862 2.46409C18.9284 5.1219 16.2576 7.79273 13.5998 10.4505C13.4955 10.5548 13.3783 10.659 13.248 10.7372C12.5054 11.1541 11.7237 11.0368 11.0722 10.3854C8.45353 7.76667 5.84784 5.16098 3.22912 2.54226C3.16397 2.47712 3.11186 2.42501 3.04672 2.35986C3.05975 2.32078 3.05975 2.28169 3.07278 2.2426C3.15095 2.25563 3.21609 2.29472 3.29426 2.29472C4.93584 2.29472 6.59046 2.29472 8.23204 2.29472C8.68804 2.29472 9.15706 2.30775 9.61306 2.29472C9.89968 2.28169 10.1081 2.12535 10.2124 1.85176C10.3036 1.60421 10.2515 1.3697 10.0821 1.17427C9.91271 0.978844 9.66517 0.96582 9.41763 0.96582C6.7468 0.96582 4.06294 0.96582 1.3921 0.96582C0.727653 0.96582 0.532227 1.17427 0.532227 1.82569C0.532227 6.63319 0.532227 11.4407 0.532227 16.2482C0.532227 16.9517 0.727653 17.1341 1.44422 17.1341C8.75318 17.1341 16.0621 17.1341 23.3711 17.1341C24.0746 17.1341 24.2701 16.9387 24.2701 16.2352C24.2701 11.4407 24.2701 6.64623 24.2701 1.85176C24.218 1.17428 24.0225 0.978842 23.319 0.978842ZM1.82204 3.1546C1.9393 3.11552 1.96536 3.21974 2.01747 3.27185C3.85448 5.09584 5.67847 6.93285 7.51548 8.75683C7.6197 8.86106 7.74999 8.93923 7.56759 9.1086C5.67847 10.9847 3.80237 12.8608 1.92627 14.7369C1.90021 14.763 1.87416 14.7629 1.82204 14.802C1.82204 10.9065 1.82204 7.03708 1.82204 3.1546ZM21.8207 15.701C21.8468 15.7271 21.8468 15.7531 21.8728 15.7922C15.5149 15.7922 9.18312 15.7922 2.85129 15.7922C2.82523 15.701 2.91643 15.6749 2.95552 15.6228C4.79253 13.7858 6.62954 11.9488 8.46656 10.0988C8.63593 9.92939 8.72712 9.95545 8.87044 10.1118C9.37855 10.6199 9.83454 11.1671 10.3948 11.6101C11.6846 12.6263 13.3522 12.5351 14.5378 11.3886C14.9808 10.9586 15.4237 10.5157 15.8667 10.0597C15.984 9.92939 16.0621 9.94242 16.1794 10.0597C18.0685 11.9488 19.9446 13.8249 21.8207 15.701ZM22.863 14.789C22.7718 14.8151 22.7327 14.7108 22.6806 14.6587C20.8436 12.8347 19.0196 10.9977 17.1826 9.17374C17.0523 9.04346 16.9741 8.96528 17.1565 8.79591C19.0196 6.94587 20.8827 5.08281 22.7457 3.21974C22.7718 3.19368 22.8109 3.16763 22.863 3.11552C22.863 7.02405 22.863 10.9065 22.863 14.789Z" fill="#33a137"/>
</svg>
