<svg width="16" height="20" viewBox="0 0 16 20" fill="none" xmlns="http://www.w3.org/2000/svg">
<path d="M2.91004 7.89168C2.91004 7.81034 2.91004 7.74084 2.91004 7.67134C2.91004 6.91715 2.90856 6.16148 2.91004 5.4073C2.91447 3.04418 4.51158 1.08921 6.84216 0.691409C9.55428 0.228545 11.6527 1.80051 12.3167 3.9211C12.4512 4.35143 12.5134 4.81578 12.5341 5.26681C12.5681 6.06536 12.5444 6.86539 12.5444 7.66542C12.5444 7.73492 12.5444 7.80443 12.5444 7.86654C12.8328 7.90647 13.1108 7.91977 13.3755 7.98484C14.489 8.26286 15.2831 9.24034 15.2905 10.3849C15.3053 12.5706 15.3083 14.7577 15.2905 16.9434C15.2787 18.3675 14.1415 19.447 12.6893 19.45C10.026 19.4544 7.3627 19.4514 4.6979 19.45C3.96886 19.45 3.23981 19.4648 2.51224 19.4352C1.27005 19.3834 0.174261 18.2581 0.165388 17.0144C0.1506 14.7888 0.1506 12.5647 0.165388 10.3391C0.172782 9.07915 1.28927 7.9597 2.54625 7.90647C2.6616 7.90351 2.77547 7.89759 2.91004 7.89168ZM7.7324 18.2063C9.37682 18.2063 11.0212 18.2063 12.6657 18.2063C13.4982 18.2063 14.0557 17.6444 14.0557 16.8088C14.0557 14.7252 14.0557 12.6431 14.0557 10.5594C14.0557 9.69729 13.5027 9.14422 12.6435 9.14422C9.36795 9.14422 6.09093 9.14422 2.81539 9.14422C1.95917 9.14422 1.40166 9.70321 1.40166 10.5624C1.40018 12.6386 1.40018 14.7163 1.40166 16.7926C1.40166 17.6517 1.96065 18.2063 2.81835 18.2063C4.45538 18.2078 6.09389 18.2063 7.7324 18.2063ZM11.3007 7.89168C11.3007 6.96003 11.3288 6.05057 11.2874 5.14407C11.2697 4.74775 11.1647 4.33665 11.0079 3.97138C10.3085 2.34471 8.61524 1.5358 6.79928 1.97205C5.32639 2.32696 4.2794 3.56028 4.18328 5.07457C4.12561 5.98699 4.16258 6.90532 4.15814 7.82069C4.15814 7.84436 4.17441 7.86654 4.18328 7.8902C6.5538 7.89168 8.91839 7.89168 11.3007 7.89168Z" fill="#33a137"/>
<path d="M8.35875 13.6736C8.35875 14.0344 8.36467 14.3952 8.35727 14.756C8.35136 15.0562 8.15172 15.3076 7.88849 15.3697C7.609 15.4363 7.30732 15.3106 7.18606 15.0548C7.13578 14.9483 7.11212 14.8196 7.11064 14.7013C7.10325 14.0181 7.10473 13.3364 7.10917 12.6532C7.11212 12.2332 7.3576 11.9685 7.73026 11.9685C8.10735 11.9685 8.35727 12.2465 8.35875 12.6695C8.36023 13.0037 8.35875 13.3394 8.35875 13.6736Z" fill="#33a137"/>
</svg>
