<svg width="25" height="25" viewBox="0 0 25 25" fill="none" xmlns="http://www.w3.org/2000/svg">
<path d="M23.3483 17.2407C22.4183 16.3007 21.4883 15.3607 20.5483 14.4307C20.3683 14.2507 20.1883 14.0807 19.9783 13.9407C19.0883 13.3207 17.9583 13.3707 17.1183 14.0707C16.4383 14.6407 15.8583 15.3007 15.2183 15.9107C15.1483 15.9807 15.0983 16.0607 14.9683 15.9907C14.6383 15.7907 14.2783 15.6307 13.9483 15.4207C12.7583 14.6407 11.6983 13.7207 10.7283 12.6807C9.80832 11.6907 8.96832 10.6507 8.34832 9.44068C8.28832 9.27068 8.28832 9.18068 8.42832 9.04068C9.04832 8.45068 9.66832 7.86068 10.2283 7.21068C10.9883 6.32068 11.0083 5.02068 10.2483 4.13068C9.50832 3.25068 8.64832 2.49068 7.84832 1.67068C7.47832 1.29068 7.10832 0.900684 6.69832 0.570684C5.77832 -0.169316 4.50832 -0.179316 3.60832 0.580684C2.79832 1.26068 2.08832 2.05068 1.35832 2.81068C0.91832 3.26068 0.63832 3.81068 0.44832 4.42068C0.37832 4.65068 0.38832 4.90068 0.27832 5.12068C0.27832 5.27068 0.27832 5.42068 0.27832 5.57068C0.27832 5.70068 0.27832 5.84068 0.27832 5.97068C0.27832 6.10068 0.27832 6.24068 0.27832 6.37068C0.33832 6.38068 0.32832 6.43068 0.32832 6.47068C0.42832 7.43068 0.68832 8.35068 1.02832 9.25068C2.15832 12.2507 3.93832 14.8207 6.09832 17.1507C7.89832 19.0907 9.96832 20.7207 12.2883 22.0007C14.1183 23.0107 15.9983 23.8707 18.1183 24.0607C19.2883 24.1707 20.3683 23.9407 21.2883 23.1907C21.8683 22.7207 22.3083 22.1207 22.8583 21.6207C23.1583 21.3407 23.4583 21.0607 23.6983 20.7307C24.1083 20.1807 24.3183 19.5707 24.2283 18.8707C24.1483 18.2107 23.7983 17.7007 23.3483 17.2407ZM22.4983 19.9007C21.8283 20.6207 21.1483 21.3207 20.4383 22.0007C19.9583 22.4707 19.3283 22.6107 18.6183 22.6307C17.6283 22.5907 16.6183 22.3507 15.6483 21.9707C13.3283 21.0707 11.2383 19.7907 9.33832 18.2007C6.75832 16.0207 4.66832 13.4507 3.13832 10.4307C2.55832 9.25068 2.07832 8.03068 1.84832 6.74068C1.72832 6.00068 1.68832 5.27068 1.95832 4.55068C2.09832 4.19068 2.31832 3.90068 2.57832 3.63068C3.14832 3.06068 3.71832 2.49068 4.28832 1.92068C4.88832 1.32068 5.42832 1.32068 6.02832 1.93068C6.97832 2.87068 7.91832 3.81068 8.85832 4.75068C8.87832 4.77068 8.89832 4.79068 8.91832 4.81068C9.50832 5.43068 9.51832 5.89068 8.90832 6.51068C8.34832 7.07068 7.77832 7.63068 7.19832 8.18068C6.68832 8.68068 6.60832 9.09068 6.89832 9.75068C7.53832 11.2107 8.50832 12.4307 9.57832 13.5907C10.7683 14.8807 12.0783 16.0207 13.5983 16.9207C13.9283 17.1107 14.2683 17.2907 14.6083 17.4607C15.0983 17.7107 15.5683 17.6307 15.9783 17.2407C16.5583 16.6707 17.1283 16.0907 17.7083 15.5107C17.7883 15.4307 17.8683 15.3407 17.9583 15.2707C18.4283 14.8907 18.9083 14.9007 19.3383 15.3207C20.0883 16.0507 20.8283 16.8007 21.5683 17.5407C21.8783 17.8507 22.1883 18.1507 22.4783 18.4607C22.8983 18.9207 22.9283 19.4407 22.4983 19.9007Z" fill="#7AA6FF"/>
</svg>
