<svg width="22" height="25" viewBox="0 0 22 25" fill="none" xmlns="http://www.w3.org/2000/svg">
<path d="M21.0214 20.2939C18.9694 14.9985 13.1908 12.2989 7.71399 14.0788C3.48942 15.4435 0.547314 19.4484 0.532227 23.8242C0.532227 24.4175 0.833981 24.729 1.45258 24.729C4.66627 24.729 7.87995 24.729 11.0936 24.729C14.3375 24.729 17.5814 24.729 20.8252 24.729C21.3684 24.729 21.6852 24.4027 21.7003 23.8687C21.6852 22.6375 21.4589 21.4361 21.0214 20.2939ZM19.8144 23.127C18.9242 23.1122 18.034 23.127 17.1438 23.127C15.1221 23.127 13.1154 23.127 11.0936 23.127C8.21188 23.127 5.31504 23.127 2.43328 23.127C2.2824 23.127 2.19188 23.127 2.22205 22.9194C2.46346 21.1097 3.15749 19.5078 4.3796 18.1431C5.84311 16.4966 7.68381 15.5028 9.88662 15.221C14.5336 14.6128 18.7582 17.4756 19.8294 21.9701C19.9049 22.2816 19.9351 22.6079 20.0105 22.9194C20.0256 23.0825 19.9954 23.127 19.8144 23.127Z" fill="#33a137"/>
<path d="M11.109 11.928C14.2171 11.928 16.7971 9.43605 16.7971 6.41009C16.8122 3.2358 14.3076 0.729004 11.1241 0.729004C7.97079 0.729004 5.42097 3.22097 5.42097 6.27659C5.40588 9.42122 7.94062 11.928 11.109 11.928ZM11.1241 2.33098C13.3873 2.36065 15.1978 4.17029 15.1676 6.36559C15.1526 8.57573 13.2968 10.3409 11.0487 10.326C8.83079 10.3112 7.02026 8.4719 7.03535 6.27659C7.06553 4.11096 8.93641 2.30132 11.1241 2.33098Z" fill="#33a137"/>
</svg>
